# xmcd
#
# Track frame offsets:
#	150
#	14067
#	25860
#	39947
#	52327
#	68115
#	85790
#	101265
#	115722
#	125447
#	150040
#	163252
#	178297
#	195465
#	209277
#	222250
#	238200
#
# Disc length: 3338 seconds
#
# Revision: 1
# Processed by: cddbd v1.5.2PL0 Copyright (c) Steve Scherf et al.
# Submitted via: audiograbber 1.83.01
#
DISCID=e60d0811
DTITLE=Thomas Leary - Thomas Leary
DYEAR=1995
DGENRE=Country
TTITLE0=Trail´s Got Me Mama
TTITLE1=Bluegrass Baby
TTITLE2=Please Leave A Message
TTITLE3=Wrapped ´round My Finger
TTITLE4=Getting Crooked
TTITLE5=Sad Song
TTITLE6=First Born
TTITLE7=Trouble´s My Middle Name
TTITLE8=Outlaw Boggie
TTITLE9=In The Daytime
TTITLE10=Without You
TTITLE11=Still The Lovin´ Is Fun
TTITLE12=Slipped Right Through My Fingers
TTITLE13=Forgot About That
TTITLE14=Camelback Mountain
TTITLE15=Windin´ Down
TTITLE16=Ocean
EXTD=
EXTT0=
EXTT1=
EXTT2=
EXTT3=
EXTT4=
EXTT5=
EXTT6=
EXTT7=
EXTT8=
EXTT9=
EXTT10=
EXTT11=
EXTT12=
EXTT13=
EXTT14=
EXTT15=
EXTT16=
PLAYORDER=
